<svg width="819" height="253" viewBox="0 0 819 253" fill="none" xmlns="http://www.w3.org/2000/svg">
<path d="M39.0771 161.018C38.9632 160.904 38.9062 160.745 38.9062 160.542V159.077C37.8158 159.077 36.8514 159.292 36.0132 159.724C35.175 160.147 34.5931 160.765 34.2676 161.579V166.999H38.3691C38.5238 166.999 38.6418 167.048 38.7231 167.146C38.8127 167.243 38.8574 167.361 38.8574 167.5C38.8574 167.63 38.8127 167.748 38.7231 167.854C38.6336 167.951 38.5116 168 38.3569 168H30.9106C30.7316 168 30.5933 167.951 30.4956 167.854C30.3979 167.748 30.3491 167.626 30.3491 167.487C30.3491 167.357 30.3939 167.243 30.4834 167.146C30.5729 167.048 30.6991 166.999 30.8618 166.999H33.0957V159.345L31.6064 159.65C31.5739 159.659 31.5251 159.663 31.46 159.663C31.3053 159.663 31.1833 159.614 31.0938 159.516C31.0124 159.418 30.9717 159.305 30.9717 159.174C30.9717 159.06 31.0042 158.963 31.0693 158.881C31.1344 158.792 31.224 158.735 31.3379 158.71L33.4253 158.295C33.5311 158.271 33.6247 158.259 33.7061 158.259C33.8851 158.259 34.0031 158.316 34.0601 158.43C34.1252 158.544 34.1618 158.715 34.1699 158.942L34.2188 160.212C35.1465 158.788 36.7415 158.076 39.0039 158.076C39.3945 158.076 39.6712 158.137 39.834 158.259C39.9967 158.381 40.0781 158.564 40.0781 158.808V160.493C40.0781 160.712 40.0171 160.883 39.895 161.005C39.7811 161.119 39.6427 161.176 39.48 161.176C39.3254 161.176 39.1911 161.123 39.0771 161.018ZM46.0962 165.803C45.6323 165.021 45.4004 164.098 45.4004 163.032C45.4004 162.023 45.6405 161.144 46.1206 160.395C46.6089 159.646 47.2599 159.073 48.0737 158.674C48.8957 158.275 49.8031 158.076 50.7959 158.076C51.6423 158.076 52.395 158.234 53.0542 158.552C53.7215 158.861 54.2424 159.321 54.6167 159.931C54.9992 160.542 55.1904 161.282 55.1904 162.153C55.1904 162.462 55.105 162.718 54.9341 162.922C54.7632 163.117 54.5353 163.215 54.2505 163.215L46.5723 163.276C46.613 164.562 47.0199 165.538 47.793 166.206C48.5661 166.873 49.5793 167.207 50.8325 167.207C51.4429 167.207 52.041 167.097 52.627 166.877C53.221 166.649 53.75 166.315 54.2139 165.876C54.3848 165.738 54.5516 165.668 54.7144 165.668C54.8608 165.668 54.9788 165.721 55.0684 165.827C55.1579 165.933 55.2026 166.059 55.2026 166.206C55.2026 166.385 55.1294 166.556 54.9829 166.718C54.5597 167.174 53.9494 167.536 53.1519 167.805C52.3625 168.073 51.6219 168.208 50.9302 168.208C49.8397 168.208 48.8753 168 48.0371 167.585C47.207 167.17 46.5601 166.576 46.0962 165.803ZM53.396 160.041C52.9484 159.398 52.0898 159.077 50.8203 159.077C49.6322 159.077 48.6678 159.366 47.9272 159.943C47.1948 160.521 46.7554 161.331 46.6089 162.373L54.1528 162.324C54.0959 161.445 53.8436 160.684 53.396 160.041ZM62.124 162.458C61.6764 162.067 61.4526 161.53 61.4526 160.847C61.4526 159.846 61.827 159.134 62.5757 158.71C63.3325 158.287 64.2684 158.076 65.3833 158.076C66.0913 158.076 66.7749 158.186 67.4341 158.405C68.0933 158.617 68.5449 158.881 68.7891 159.199V158.747C68.7809 158.56 68.8298 158.413 68.9355 158.308C69.0413 158.194 69.1634 158.137 69.3018 158.137C69.4401 158.137 69.5581 158.19 69.6558 158.295C69.7534 158.401 69.8022 158.548 69.8022 158.735L69.7778 161.188C69.7616 161.343 69.7168 161.457 69.6436 161.53C69.5703 161.604 69.4523 161.64 69.2896 161.64C69.0861 161.64 68.9559 161.563 68.8989 161.408C68.842 161.254 68.8094 160.985 68.8013 160.603C68.5815 160.09 68.1624 159.707 67.5439 159.455C66.9336 159.203 66.1849 159.077 65.2979 159.077C63.5726 159.077 62.71 159.606 62.71 160.664C62.71 161.038 62.8239 161.343 63.0518 161.579C63.2796 161.807 63.6825 161.986 64.2603 162.116L67.4219 162.751C68.2113 162.906 68.8175 163.186 69.2407 163.593C69.672 164 69.8877 164.623 69.8877 165.461C69.8877 166.372 69.5256 167.06 68.8013 167.524C68.0851 167.98 67.1208 168.208 65.9082 168.208C65.1432 168.208 64.4312 168.094 63.772 167.866C63.1209 167.638 62.5716 167.268 62.124 166.755V167.487C62.124 167.658 62.0793 167.788 61.9897 167.878C61.9084 167.959 61.8066 168 61.6846 168C61.5544 168 61.4404 167.955 61.3428 167.866C61.2451 167.776 61.1963 167.662 61.1963 167.524L61.2207 164.765C61.2207 164.554 61.2655 164.395 61.355 164.289C61.4445 164.183 61.5462 164.13 61.6602 164.13C61.7985 164.13 61.9043 164.171 61.9775 164.252C62.0589 164.334 62.0996 164.505 62.0996 164.765C62.0996 165.221 62.2624 165.636 62.5879 166.01C62.9215 166.385 63.3732 166.678 63.9429 166.889C64.5125 167.101 65.1432 167.207 65.835 167.207C66.7627 167.207 67.4707 167.064 67.959 166.779C68.4554 166.486 68.7036 166.043 68.7036 165.449C68.7036 165.034 68.5938 164.7 68.374 164.448C68.1543 164.187 67.784 164.008 67.2632 163.911L64.0161 163.276C63.2023 163.121 62.5716 162.849 62.124 162.458ZM77.5537 158.625V164.838C77.5537 165.546 77.7531 166.12 78.1519 166.56C78.5588 166.991 79.1569 167.207 79.9463 167.207C80.4264 167.207 80.9188 167.117 81.4233 166.938C81.9279 166.759 82.3796 166.515 82.7783 166.206C83.1852 165.896 83.4782 165.555 83.6572 165.18V159.382L82.4731 159.626C82.3999 159.65 82.3267 159.663 82.2534 159.663C82.0825 159.663 81.9442 159.61 81.8384 159.504C81.7326 159.398 81.6797 159.276 81.6797 159.138C81.6797 159.024 81.7163 158.926 81.7896 158.845C81.8709 158.755 81.9889 158.694 82.1436 158.662L84.2676 158.234C84.3327 158.218 84.3815 158.21 84.4141 158.21C84.5361 158.21 84.6338 158.251 84.707 158.332C84.7884 158.413 84.8291 158.511 84.8291 158.625V166.962L86.6357 166.828H86.709C86.8717 166.828 86.9938 166.869 87.0752 166.95C87.1566 167.032 87.1973 167.133 87.1973 167.255C87.1973 167.377 87.1566 167.491 87.0752 167.597C86.9938 167.695 86.8799 167.76 86.7334 167.792L84.4629 168.037H84.3774C84.2147 168.037 84.0804 167.988 83.9746 167.89C83.8688 167.784 83.8118 167.63 83.8037 167.426L83.7427 166.364C83.3846 166.893 82.8516 167.333 82.1436 167.683C81.4355 168.033 80.6991 168.208 79.9341 168.208C79.2017 168.208 78.5669 168.065 78.0298 167.78C77.4927 167.495 77.0817 167.097 76.7969 166.584C76.5202 166.071 76.3818 165.477 76.3818 164.802V159.382L75.1855 159.626C75.1367 159.642 75.0675 159.65 74.978 159.65C74.8153 159.65 74.681 159.597 74.5752 159.492C74.4694 159.386 74.4165 159.264 74.4165 159.125C74.4165 159.012 74.4531 158.914 74.5264 158.833C74.5996 158.751 74.7095 158.694 74.856 158.662L76.9922 158.234C77.0573 158.218 77.1061 158.21 77.1387 158.21C77.2607 158.21 77.3584 158.251 77.4316 158.332C77.513 158.413 77.5537 158.511 77.5537 158.625ZM95.5835 167.841C95.4858 167.736 95.437 167.613 95.437 167.475V161.408C95.437 160.611 95.319 160.025 95.083 159.65C94.8551 159.268 94.5459 159.077 94.1553 159.077C93.8053 159.077 93.4635 159.211 93.1299 159.479C92.8044 159.74 92.5317 160.086 92.312 160.517C92.1004 160.94 91.9865 161.388 91.9702 161.86V166.999H93.0078C93.195 166.999 93.3374 167.048 93.4351 167.146C93.5409 167.243 93.5938 167.357 93.5938 167.487C93.5938 167.626 93.5368 167.748 93.4229 167.854C93.3171 167.951 93.1706 168 92.9834 168H89.5288C89.3498 168 89.2114 167.947 89.1138 167.841C89.0161 167.736 88.9673 167.613 88.9673 167.475C88.9673 167.345 89.012 167.235 89.1016 167.146C89.1911 167.048 89.3172 166.999 89.48 166.999H90.7983V159.345L89.48 159.614C89.3986 159.638 89.3172 159.65 89.2358 159.65C89.0975 159.65 88.9836 159.606 88.894 159.516C88.8045 159.427 88.7598 159.317 88.7598 159.187C88.7598 159.073 88.7923 158.971 88.8574 158.881C88.9225 158.784 89.0243 158.719 89.1626 158.686L91.1646 158.283C91.2785 158.267 91.3517 158.259 91.3843 158.259C91.6854 158.259 91.8441 158.417 91.8604 158.735L91.9214 160.2C92.1574 159.524 92.4788 159.003 92.8857 158.637C93.2926 158.263 93.7565 158.076 94.2773 158.076C94.7575 158.076 95.1888 158.238 95.5713 158.564C95.9538 158.889 96.2345 159.374 96.4136 160.017C96.6984 159.39 97.0605 158.91 97.5 158.576C97.9476 158.243 98.4277 158.076 98.9404 158.076C99.3799 158.076 99.7705 158.202 100.112 158.454C100.462 158.706 100.739 159.089 100.942 159.602C101.146 160.114 101.248 160.745 101.248 161.494V166.999H102.578C102.733 166.999 102.851 167.048 102.932 167.146C103.022 167.243 103.066 167.357 103.066 167.487C103.066 167.626 103.022 167.748 102.932 167.854C102.843 167.951 102.716 168 102.554 168H100.637C100.458 168 100.32 167.947 100.222 167.841C100.125 167.736 100.076 167.613 100.076 167.475V161.408C100.076 160.594 99.9699 160.004 99.7583 159.638C99.5549 159.264 99.2578 159.077 98.8672 159.077C98.5173 159.077 98.1673 159.207 97.8174 159.467C97.4674 159.72 97.1785 160.057 96.9507 160.48C96.731 160.896 96.617 161.331 96.6089 161.787V166.999H98.0493C98.2039 166.999 98.3219 167.048 98.4033 167.146C98.4928 167.243 98.5376 167.357 98.5376 167.487C98.5376 167.626 98.4928 167.748 98.4033 167.854C98.3138 167.951 98.1877 168 98.0249 168H95.9985C95.8195 168 95.6812 167.947 95.5835 167.841ZM106.643 165.803C106.179 165.021 105.947 164.098 105.947 163.032C105.947 162.023 106.187 161.144 106.667 160.395C107.156 159.646 107.807 159.073 108.621 158.674C109.443 158.275 110.35 158.076 111.343 158.076C112.189 158.076 112.942 158.234 113.601 158.552C114.268 158.861 114.789 159.321 115.164 159.931C115.546 160.542 115.737 161.282 115.737 162.153C115.737 162.462 115.652 162.718 115.481 162.922C115.31 163.117 115.082 163.215 114.797 163.215L107.119 163.276C107.16 164.562 107.567 165.538 108.34 166.206C109.113 166.873 110.126 167.207 111.379 167.207C111.99 167.207 112.588 167.097 113.174 166.877C113.768 166.649 114.297 166.315 114.761 165.876C114.932 165.738 115.098 165.668 115.261 165.668C115.408 165.668 115.526 165.721 115.615 165.827C115.705 165.933 115.75 166.059 115.75 166.206C115.75 166.385 115.676 166.556 115.53 166.718C115.107 167.174 114.496 167.536 113.699 167.805C112.909 168.073 112.169 168.208 111.477 168.208C110.387 168.208 109.422 168 108.584 167.585C107.754 167.17 107.107 166.576 106.643 165.803ZM113.943 160.041C113.495 159.398 112.637 159.077 111.367 159.077C110.179 159.077 109.215 159.366 108.474 159.943C107.742 160.521 107.302 161.331 107.156 162.373L114.7 162.324C114.643 161.445 114.39 160.684 113.943 160.041ZM125.186 167.817C124.941 167.622 124.819 167.337 124.819 166.962C124.819 166.596 124.937 166.311 125.173 166.108C125.417 165.904 125.698 165.803 126.016 165.803C126.406 165.803 126.732 165.933 126.992 166.193C127.253 166.454 127.383 166.816 127.383 167.28C127.383 167.727 127.269 168.167 127.041 168.598C126.813 169.038 126.524 169.424 126.174 169.758C125.824 170.1 125.474 170.36 125.125 170.539C125.1 170.555 125.059 170.563 125.002 170.563C124.913 170.563 124.832 170.527 124.758 170.454C124.693 170.389 124.661 170.315 124.661 170.234C124.661 170.136 124.709 170.051 124.807 169.978C125.149 169.733 125.454 169.44 125.723 169.099C125.999 168.765 126.138 168.431 126.138 168.098C125.755 168.098 125.438 168.004 125.186 167.817ZM152.944 162.458C152.497 162.067 152.273 161.53 152.273 160.847C152.273 159.846 152.647 159.134 153.396 158.71C154.153 158.287 155.089 158.076 156.204 158.076C156.912 158.076 157.595 158.186 158.254 158.405C158.914 158.617 159.365 158.881 159.609 159.199V158.747C159.601 158.56 159.65 158.413 159.756 158.308C159.862 158.194 159.984 158.137 160.122 158.137C160.26 158.137 160.378 158.19 160.476 158.295C160.574 158.401 160.623 158.548 160.623 158.735L160.598 161.188C160.582 161.343 160.537 161.457 160.464 161.53C160.391 161.604 160.273 161.64 160.11 161.64C159.906 161.64 159.776 161.563 159.719 161.408C159.662 161.254 159.63 160.985 159.622 160.603C159.402 160.09 158.983 159.707 158.364 159.455C157.754 159.203 157.005 159.077 156.118 159.077C154.393 159.077 153.53 159.606 153.53 160.664C153.53 161.038 153.644 161.343 153.872 161.579C154.1 161.807 154.503 161.986 155.081 162.116L158.242 162.751C159.032 162.906 159.638 163.186 160.061 163.593C160.492 164 160.708 164.623 160.708 165.461C160.708 166.372 160.346 167.06 159.622 167.524C158.905 167.98 157.941 168.208 156.729 168.208C155.964 168.208 155.251 168.094 154.592 167.866C153.941 167.638 153.392 167.268 152.944 166.755V167.487C152.944 167.658 152.9 167.788 152.81 167.878C152.729 167.959 152.627 168 152.505 168C152.375 168 152.261 167.955 152.163 167.866C152.065 167.776 152.017 167.662 152.017 167.524L152.041 164.765C152.041 164.554 152.086 164.395 152.175 164.289C152.265 164.183 152.367 164.13 152.48 164.13C152.619 164.13 152.725 164.171 152.798 164.252C152.879 164.334 152.92 164.505 152.92 164.765C152.92 165.221 153.083 165.636 153.408 166.01C153.742 166.385 154.194 166.678 154.763 166.889C155.333 167.101 155.964 167.207 156.655 167.207C157.583 167.207 158.291 167.064 158.779 166.779C159.276 166.486 159.524 166.043 159.524 165.449C159.524 165.034 159.414 164.7 159.194 164.448C158.975 164.187 158.604 164.008 158.083 163.911L154.836 163.276C154.023 163.121 153.392 162.849 152.944 162.458ZM169.448 153.681C169.53 153.746 169.57 153.84 169.57 153.962V163.129L174.246 159.553H172.988C172.826 159.553 172.699 159.504 172.61 159.406C172.52 159.309 172.476 159.191 172.476 159.052C172.476 158.914 172.524 158.796 172.622 158.698C172.72 158.592 172.858 158.54 173.037 158.54H176.907C177.069 158.54 177.192 158.592 177.273 158.698C177.362 158.804 177.407 158.938 177.407 159.101C177.407 159.215 177.358 159.321 177.261 159.418C177.163 159.508 177.049 159.553 176.919 159.553H175.833L171.963 162.556L176.125 166.999H177.188C177.342 166.999 177.46 167.052 177.542 167.158C177.631 167.255 177.676 167.369 177.676 167.5C177.676 167.638 177.631 167.756 177.542 167.854C177.46 167.951 177.342 168 177.188 168H173.367C173.204 168 173.078 167.951 172.988 167.854C172.899 167.748 172.854 167.63 172.854 167.5C172.854 167.361 172.903 167.243 173 167.146C173.098 167.048 173.236 166.999 173.416 166.999H174.758L171.108 163.117L169.57 164.24V166.999H170.437C170.583 166.999 170.697 167.052 170.779 167.158C170.868 167.255 170.913 167.369 170.913 167.5C170.913 167.638 170.868 167.756 170.779 167.854C170.697 167.951 170.579 168 170.425 168H166.348C166.177 168 166.038 167.951 165.933 167.854C165.835 167.748 165.786 167.626 165.786 167.487C165.786 167.357 165.831 167.243 165.92 167.146C166.01 167.048 166.136 166.999 166.299 166.999H168.398V154.792L166.323 155.085C166.299 155.093 166.27 155.097 166.238 155.097C166.083 155.097 165.961 155.048 165.872 154.951C165.782 154.845 165.737 154.723 165.737 154.584C165.737 154.462 165.77 154.357 165.835 154.267C165.9 154.169 165.998 154.112 166.128 154.096L168.984 153.583L169.131 153.571C169.261 153.571 169.367 153.608 169.448 153.681ZM186.77 155.427C186.575 155.231 186.477 154.995 186.477 154.719C186.477 154.434 186.575 154.194 186.77 153.999C186.973 153.803 187.214 153.706 187.49 153.706C187.767 153.706 188.003 153.803 188.198 153.999C188.394 154.194 188.491 154.434 188.491 154.719C188.491 154.995 188.394 155.231 188.198 155.427C188.011 155.622 187.775 155.72 187.49 155.72C187.205 155.72 186.965 155.622 186.77 155.427ZM192.727 167.854C192.638 167.951 192.515 168 192.361 168H182.644C182.465 168 182.327 167.947 182.229 167.841C182.131 167.736 182.083 167.613 182.083 167.475C182.083 167.345 182.127 167.235 182.217 167.146C182.306 167.048 182.432 166.999 182.595 166.999H187.136V159.223L183.071 159.772L182.986 159.785C182.831 159.785 182.709 159.736 182.62 159.638C182.53 159.532 182.485 159.41 182.485 159.272C182.485 159.15 182.518 159.044 182.583 158.955C182.648 158.857 182.746 158.8 182.876 158.784L187.734 158.112C187.759 158.104 187.804 158.1 187.869 158.1C187.999 158.1 188.105 158.137 188.186 158.21C188.267 158.275 188.308 158.369 188.308 158.491V166.999H192.373C192.528 166.999 192.646 167.052 192.727 167.158C192.817 167.255 192.861 167.369 192.861 167.5C192.861 167.638 192.817 167.756 192.727 167.854ZM202.383 153.583L202.517 153.571C202.647 153.571 202.753 153.608 202.834 153.681C202.916 153.746 202.957 153.84 202.957 153.962V166.999H207.107C207.253 166.999 207.367 167.052 207.449 167.158C207.538 167.255 207.583 167.369 207.583 167.5C207.583 167.638 207.538 167.756 207.449 167.854C207.367 167.951 207.249 168 207.095 168H197.329C197.15 168 197.012 167.951 196.914 167.854C196.816 167.748 196.768 167.626 196.768 167.487C196.768 167.357 196.812 167.243 196.902 167.146C196.991 167.048 197.118 166.999 197.28 166.999H201.785V154.694L197.476 155.036L197.39 155.048C197.236 155.048 197.113 155 197.024 154.902C196.934 154.796 196.89 154.674 196.89 154.536C196.89 154.414 196.922 154.308 196.987 154.218C197.052 154.121 197.15 154.064 197.28 154.047L202.383 153.583ZM217.52 153.583L217.654 153.571C217.784 153.571 217.89 153.608 217.971 153.681C218.053 153.746 218.093 153.84 218.093 153.962V166.999H222.244C222.39 166.999 222.504 167.052 222.585 167.158C222.675 167.255 222.72 167.369 222.72 167.5C222.72 167.638 222.675 167.756 222.585 167.854C222.504 167.951 222.386 168 222.231 168H212.466C212.287 168 212.148 167.951 212.051 167.854C211.953 167.748 211.904 167.626 211.904 167.487C211.904 167.357 211.949 167.243 212.039 167.146C212.128 167.048 212.254 166.999 212.417 166.999H216.921V154.694L212.612 155.036L212.527 155.048C212.372 155.048 212.25 155 212.161 154.902C212.071 154.796 212.026 154.674 212.026 154.536C212.026 154.414 212.059 154.308 212.124 154.218C212.189 154.121 212.287 154.064 212.417 154.047L217.52 153.583ZM228.628 162.458C228.18 162.067 227.957 161.53 227.957 160.847C227.957 159.846 228.331 159.134 229.08 158.71C229.836 158.287 230.772 158.076 231.887 158.076C232.595 158.076 233.279 158.186 233.938 158.405C234.597 158.617 235.049 158.881 235.293 159.199V158.747C235.285 158.56 235.334 158.413 235.439 158.308C235.545 158.194 235.667 158.137 235.806 158.137C235.944 158.137 236.062 158.19 236.16 158.295C236.257 158.401 236.306 158.548 236.306 158.735L236.282 161.188C236.265 161.343 236.221 161.457 236.147 161.53C236.074 161.604 235.956 161.64 235.793 161.64C235.59 161.64 235.46 161.563 235.403 161.408C235.346 161.254 235.313 160.985 235.305 160.603C235.085 160.09 234.666 159.707 234.048 159.455C233.438 159.203 232.689 159.077 231.802 159.077C230.076 159.077 229.214 159.606 229.214 160.664C229.214 161.038 229.328 161.343 229.556 161.579C229.784 161.807 230.186 161.986 230.764 162.116L233.926 162.751C234.715 162.906 235.321 163.186 235.745 163.593C236.176 164 236.392 164.623 236.392 165.461C236.392 166.372 236.029 167.06 235.305 167.524C234.589 167.98 233.625 168.208 232.412 168.208C231.647 168.208 230.935 168.094 230.276 167.866C229.625 167.638 229.076 167.268 228.628 166.755V167.487C228.628 167.658 228.583 167.788 228.494 167.878C228.412 167.959 228.311 168 228.188 168C228.058 168 227.944 167.955 227.847 167.866C227.749 167.776 227.7 167.662 227.7 167.524L227.725 164.765C227.725 164.554 227.769 164.395 227.859 164.289C227.948 164.183 228.05 164.13 228.164 164.13C228.302 164.13 228.408 164.171 228.481 164.252C228.563 164.334 228.604 164.505 228.604 164.765C228.604 165.221 228.766 165.636 229.092 166.01C229.425 166.385 229.877 166.678 230.447 166.889C231.016 167.101 231.647 167.207 232.339 167.207C233.267 167.207 233.975 167.064 234.463 166.779C234.959 166.486 235.208 166.043 235.208 165.449C235.208 165.034 235.098 164.7 234.878 164.448C234.658 164.187 234.288 164.008 233.767 163.911L230.52 163.276C229.706 163.121 229.076 162.849 228.628 162.458ZM246.279 167.817C246.035 167.622 245.913 167.337 245.913 166.962C245.913 166.596 246.031 166.311 246.267 166.108C246.511 165.904 246.792 165.803 247.109 165.803C247.5 165.803 247.826 165.933 248.086 166.193C248.346 166.454 248.477 166.816 248.477 167.28C248.477 167.727 248.363 168.167 248.135 168.598C247.907 169.038 247.618 169.424 247.268 169.758C246.918 170.1 246.568 170.36 246.218 170.539C246.194 170.555 246.153 170.563 246.096 170.563C246.007 170.563 245.925 170.527 245.852 170.454C245.787 170.389 245.754 170.315 245.754 170.234C245.754 170.136 245.803 170.051 245.901 169.978C246.243 169.733 246.548 169.44 246.816 169.099C247.093 168.765 247.231 168.431 247.231 168.098C246.849 168.098 246.532 168.004 246.279 167.817ZM282.925 168.391C282.852 168.391 282.774 168.37 282.693 168.33C282.506 168.224 282.278 168.069 282.009 167.866C281.749 167.654 281.403 167.365 280.972 166.999L280.203 166.352C279.666 166.946 279.063 167.402 278.396 167.719C277.737 168.037 276.951 168.195 276.04 168.195C275.259 168.195 274.571 168.061 273.977 167.792C273.391 167.516 272.935 167.113 272.61 166.584C272.292 166.055 272.134 165.42 272.134 164.68C272.134 164.517 272.138 164.391 272.146 164.301C272.187 163.74 272.378 163.194 272.72 162.666C273.07 162.137 273.424 161.701 273.782 161.359C274.14 161.009 274.539 160.651 274.978 160.285C274.457 159.593 274.034 158.951 273.708 158.356C273.383 157.762 273.22 157.168 273.22 156.574C273.22 155.964 273.338 155.427 273.574 154.963C273.81 154.499 274.144 154.137 274.575 153.876C275.015 153.616 275.523 153.486 276.101 153.486C276.72 153.486 277.257 153.62 277.712 153.889C278.168 154.149 278.518 154.515 278.762 154.987C279.014 155.459 279.141 156 279.141 156.611C279.141 157.148 279.019 157.64 278.774 158.088C278.53 158.535 278.241 158.918 277.908 159.235C277.582 159.553 277.167 159.911 276.663 160.31L276.382 160.529C276.87 161.237 277.501 162.035 278.274 162.922C279.047 163.809 279.698 164.468 280.227 164.899C280.463 164.672 280.699 164.35 280.935 163.935C281.171 163.512 281.37 163.068 281.533 162.604C281.696 162.132 281.785 161.717 281.802 161.359H280.19C280.06 161.359 279.958 161.306 279.885 161.201C279.812 161.095 279.775 160.973 279.775 160.834C279.775 160.704 279.808 160.594 279.873 160.505C279.938 160.407 280.036 160.358 280.166 160.358H283.511C283.641 160.358 283.743 160.411 283.816 160.517C283.897 160.615 283.938 160.729 283.938 160.859C283.938 160.997 283.897 161.115 283.816 161.213C283.743 161.311 283.633 161.359 283.486 161.359H282.766C282.734 162.043 282.546 162.718 282.205 163.386C281.871 164.053 281.44 164.765 280.911 165.522C281.285 165.839 281.704 166.193 282.168 166.584C282.64 166.966 282.982 167.231 283.193 167.377C283.389 167.508 283.486 167.666 283.486 167.854C283.486 167.992 283.429 168.114 283.315 168.22C283.201 168.334 283.071 168.391 282.925 168.391ZM274.795 158.063C275.072 158.641 275.409 159.195 275.808 159.724C276.418 159.284 276.947 158.804 277.395 158.283C277.851 157.754 278.079 157.205 278.079 156.635C278.079 155.903 277.896 155.362 277.529 155.012C277.163 154.662 276.728 154.487 276.223 154.487C275.922 154.487 275.633 154.556 275.356 154.694C275.08 154.833 274.848 155.052 274.661 155.354C274.482 155.646 274.392 156.021 274.392 156.477C274.392 156.957 274.526 157.486 274.795 158.063ZM277.505 163.508C276.675 162.523 276.036 161.726 275.588 161.115C275.108 161.49 274.62 161.974 274.124 162.568C273.627 163.162 273.359 163.707 273.318 164.204C273.31 164.285 273.306 164.403 273.306 164.558C273.306 165.461 273.574 166.128 274.111 166.56C274.648 166.991 275.336 167.207 276.174 167.207C276.85 167.207 277.493 167.064 278.103 166.779C278.713 166.486 279.21 166.112 279.592 165.656C279.031 165.201 278.335 164.484 277.505 163.508ZM126.223 183.427C126.028 183.231 125.93 182.995 125.93 182.719C125.93 182.434 126.028 182.194 126.223 181.999C126.427 181.803 126.667 181.706 126.943 181.706C127.22 181.706 127.456 181.803 127.651 181.999C127.847 182.194 127.944 182.434 127.944 182.719C127.944 182.995 127.847 183.231 127.651 183.427C127.464 183.622 127.228 183.72 126.943 183.72C126.659 183.72 126.418 183.622 126.223 183.427ZM132.18 195.854C132.091 195.951 131.969 196 131.814 196H122.097C121.918 196 121.78 195.947 121.682 195.841C121.584 195.736 121.536 195.613 121.536 195.475C121.536 195.345 121.58 195.235 121.67 195.146C121.759 195.048 121.886 194.999 122.048 194.999H126.589V187.223L122.524 187.772L122.439 187.785C122.284 187.785 122.162 187.736 122.073 187.638C121.983 187.532 121.938 187.41 121.938 187.272C121.938 187.15 121.971 187.044 122.036 186.955C122.101 186.857 122.199 186.8 122.329 186.784L127.188 186.112C127.212 186.104 127.257 186.1 127.322 186.1C127.452 186.1 127.558 186.137 127.639 186.21C127.721 186.275 127.761 186.369 127.761 186.491V194.999H131.826C131.981 194.999 132.099 195.052 132.18 195.158C132.27 195.255 132.314 195.369 132.314 195.5C132.314 195.638 132.27 195.756 132.18 195.854ZM144.546 194.999V189.408C144.546 188.668 144.359 188.094 143.984 187.687C143.618 187.28 143.073 187.077 142.349 187.077C141.608 187.077 140.937 187.219 140.334 187.504C139.74 187.789 139.277 188.147 138.943 188.578C138.609 189.009 138.442 189.437 138.442 189.86V194.999H139.724C139.911 194.999 140.054 195.048 140.151 195.146C140.257 195.243 140.31 195.357 140.31 195.487C140.31 195.626 140.253 195.748 140.139 195.854C140.033 195.951 139.887 196 139.7 196H136.001C135.822 196 135.684 195.947 135.586 195.841C135.488 195.736 135.439 195.613 135.439 195.475C135.439 195.345 135.484 195.235 135.574 195.146C135.663 195.048 135.789 194.999 135.952 194.999H137.271V187.345L135.952 187.614C135.871 187.638 135.789 187.65 135.708 187.65C135.57 187.65 135.456 187.606 135.366 187.516C135.277 187.427 135.232 187.317 135.232 187.187C135.232 187.073 135.264 186.971 135.33 186.881C135.395 186.784 135.496 186.719 135.635 186.686L137.637 186.283C137.751 186.267 137.824 186.259 137.856 186.259C138.158 186.259 138.316 186.417 138.333 186.735L138.394 188.2C138.597 187.801 138.898 187.443 139.297 187.125C139.696 186.8 140.155 186.544 140.676 186.356C141.197 186.169 141.734 186.076 142.288 186.076C143.435 186.076 144.294 186.373 144.863 186.967C145.433 187.561 145.718 188.403 145.718 189.494V194.999H147.048C147.203 194.999 147.321 195.048 147.402 195.146C147.492 195.243 147.537 195.357 147.537 195.487C147.537 195.626 147.492 195.748 147.402 195.854C147.313 195.951 147.187 196 147.024 196H142.812C142.633 196 142.495 195.947 142.397 195.841C142.3 195.736 142.251 195.613 142.251 195.475C142.251 195.345 142.296 195.235 142.385 195.146C142.475 195.048 142.601 194.999 142.764 194.999H144.546ZM161.208 181.669C161.347 181.783 161.416 181.933 161.416 182.121V183.549C161.416 183.769 161.355 183.939 161.233 184.062C161.119 184.175 160.981 184.232 160.818 184.232C160.663 184.232 160.529 184.18 160.415 184.074C160.301 183.96 160.244 183.801 160.244 183.598V182.462C159.292 182.528 158.551 182.682 158.022 182.926C157.502 183.162 157.131 183.512 156.912 183.976C156.7 184.44 156.594 185.062 156.594 185.844V186.649H160.366C160.521 186.649 160.639 186.702 160.72 186.808C160.81 186.906 160.854 187.02 160.854 187.15C160.854 187.288 160.81 187.406 160.72 187.504C160.631 187.602 160.509 187.65 160.354 187.65H156.582L156.594 194.999H161.013C161.16 194.999 161.274 195.052 161.355 195.158C161.444 195.255 161.489 195.369 161.489 195.5C161.489 195.638 161.444 195.756 161.355 195.854C161.274 195.951 161.156 196 161.001 196H152.761C152.582 196 152.444 195.951 152.346 195.854C152.249 195.748 152.2 195.626 152.2 195.487C152.2 195.357 152.244 195.243 152.334 195.146C152.424 195.048 152.55 194.999 152.712 194.999H155.41V187.65H153.066C152.887 187.65 152.749 187.602 152.651 187.504C152.554 187.398 152.505 187.276 152.505 187.138C152.505 187.007 152.55 186.894 152.639 186.796C152.729 186.698 152.855 186.649 153.018 186.649H155.41V185.771C155.41 184.33 155.866 183.26 156.777 182.56C157.697 181.852 159.011 181.498 160.72 181.498C160.916 181.498 161.078 181.555 161.208 181.669ZM166.946 193.815C166.514 193.05 166.299 192.159 166.299 191.142C166.299 190.116 166.514 189.221 166.946 188.456C167.377 187.691 167.983 187.105 168.765 186.698C169.546 186.283 170.449 186.076 171.475 186.076C172.5 186.076 173.403 186.283 174.185 186.698C174.966 187.105 175.572 187.691 176.003 188.456C176.435 189.221 176.65 190.116 176.65 191.142C176.65 192.159 176.435 193.05 176.003 193.815C175.572 194.58 174.966 195.17 174.185 195.585C173.403 196 172.5 196.208 171.475 196.208C170.449 196.208 169.546 196 168.765 195.585C167.983 195.17 167.377 194.58 166.946 193.815ZM168.069 189.042C167.768 189.652 167.617 190.352 167.617 191.142C167.617 191.939 167.768 192.647 168.069 193.266C168.378 193.876 168.822 194.352 169.399 194.694C169.985 195.036 170.677 195.207 171.475 195.207C172.272 195.207 172.96 195.036 173.538 194.694C174.124 194.352 174.567 193.876 174.868 193.266C175.177 192.647 175.332 191.939 175.332 191.142C175.332 190.352 175.177 189.652 174.868 189.042C174.567 188.424 174.124 187.943 173.538 187.602C172.96 187.252 172.272 187.077 171.475 187.077C170.677 187.077 169.985 187.252 169.399 187.602C168.822 187.943 168.378 188.424 168.069 189.042ZM190.444 189.018C190.33 188.904 190.273 188.745 190.273 188.542V187.077C189.183 187.077 188.219 187.292 187.38 187.724C186.542 188.147 185.96 188.765 185.635 189.579V194.999H189.736C189.891 194.999 190.009 195.048 190.09 195.146C190.18 195.243 190.225 195.361 190.225 195.5C190.225 195.63 190.18 195.748 190.09 195.854C190.001 195.951 189.879 196 189.724 196H182.278C182.099 196 181.96 195.951 181.863 195.854C181.765 195.748 181.716 195.626 181.716 195.487C181.716 195.357 181.761 195.243 181.851 195.146C181.94 195.048 182.066 194.999 182.229 194.999H184.463V187.345L182.974 187.65C182.941 187.659 182.892 187.663 182.827 187.663C182.673 187.663 182.55 187.614 182.461 187.516C182.38 187.418 182.339 187.305 182.339 187.174C182.339 187.06 182.371 186.963 182.437 186.881C182.502 186.792 182.591 186.735 182.705 186.71L184.792 186.295C184.898 186.271 184.992 186.259 185.073 186.259C185.252 186.259 185.37 186.316 185.427 186.43C185.492 186.544 185.529 186.715 185.537 186.942L185.586 188.212C186.514 186.788 188.109 186.076 190.371 186.076C190.762 186.076 191.038 186.137 191.201 186.259C191.364 186.381 191.445 186.564 191.445 186.808V188.493C191.445 188.712 191.384 188.883 191.262 189.005C191.148 189.119 191.01 189.176 190.847 189.176C190.693 189.176 190.558 189.123 190.444 189.018ZM201.541 195.841C201.443 195.736 201.394 195.613 201.394 195.475V189.408C201.394 188.611 201.276 188.025 201.04 187.65C200.812 187.268 200.503 187.077 200.112 187.077C199.762 187.077 199.421 187.211 199.087 187.479C198.761 187.74 198.489 188.086 198.269 188.517C198.057 188.94 197.944 189.388 197.927 189.86V194.999H198.965C199.152 194.999 199.294 195.048 199.392 195.146C199.498 195.243 199.551 195.357 199.551 195.487C199.551 195.626 199.494 195.748 199.38 195.854C199.274 195.951 199.128 196 198.94 196H195.486C195.307 196 195.168 195.947 195.071 195.841C194.973 195.736 194.924 195.613 194.924 195.475C194.924 195.345 194.969 195.235 195.059 195.146C195.148 195.048 195.274 194.999 195.437 194.999H196.755V187.345L195.437 187.614C195.356 187.638 195.274 187.65 195.193 187.65C195.055 187.65 194.941 187.606 194.851 187.516C194.762 187.427 194.717 187.317 194.717 187.187C194.717 187.073 194.749 186.971 194.814 186.881C194.88 186.784 194.981 186.719 195.12 186.686L197.122 186.283C197.236 186.267 197.309 186.259 197.341 186.259C197.642 186.259 197.801 186.417 197.817 186.735L197.878 188.2C198.114 187.524 198.436 187.003 198.843 186.637C199.25 186.263 199.714 186.076 200.234 186.076C200.715 186.076 201.146 186.238 201.528 186.564C201.911 186.889 202.192 187.374 202.371 188.017C202.655 187.39 203.018 186.91 203.457 186.576C203.905 186.243 204.385 186.076 204.897 186.076C205.337 186.076 205.728 186.202 206.069 186.454C206.419 186.706 206.696 187.089 206.899 187.602C207.103 188.114 207.205 188.745 207.205 189.494V194.999H208.535C208.69 194.999 208.808 195.048 208.889 195.146C208.979 195.243 209.023 195.357 209.023 195.487C209.023 195.626 208.979 195.748 208.889 195.854C208.8 195.951 208.674 196 208.511 196H206.594C206.415 196 206.277 195.947 206.179 195.841C206.082 195.736 206.033 195.613 206.033 195.475V189.408C206.033 188.594 205.927 188.004 205.715 187.638C205.512 187.264 205.215 187.077 204.824 187.077C204.474 187.077 204.124 187.207 203.774 187.467C203.424 187.72 203.136 188.057 202.908 188.48C202.688 188.896 202.574 189.331 202.566 189.787V194.999H204.006C204.161 194.999 204.279 195.048 204.36 195.146C204.45 195.243 204.495 195.357 204.495 195.487C204.495 195.626 204.45 195.748 204.36 195.854C204.271 195.951 204.145 196 203.982 196H201.956C201.777 196 201.638 195.947 201.541 195.841ZM219.253 190.263V190.019C219.253 189.066 219.066 188.338 218.691 187.833C218.325 187.329 217.686 187.077 216.775 187.077C216.262 187.077 215.79 187.121 215.359 187.211C214.936 187.292 214.508 187.431 214.077 187.626C214.045 188.253 213.971 188.725 213.857 189.042C213.743 189.359 213.548 189.518 213.271 189.518C213.035 189.518 212.852 189.437 212.722 189.274C212.6 189.111 212.539 188.9 212.539 188.639C212.539 188.151 212.718 187.711 213.076 187.321C213.434 186.93 213.935 186.625 214.578 186.405C215.221 186.186 215.957 186.076 216.787 186.076C217.723 186.076 218.455 186.251 218.984 186.601C219.521 186.951 219.896 187.455 220.107 188.114C220.319 188.765 220.425 189.587 220.425 190.58V194.389C220.425 194.674 220.482 194.869 220.596 194.975C220.71 195.072 220.864 195.121 221.06 195.121C221.271 195.121 221.495 195.06 221.731 194.938C221.967 194.808 222.154 194.669 222.292 194.523C222.382 194.425 222.48 194.376 222.585 194.376C222.708 194.376 222.813 194.429 222.903 194.535C222.992 194.641 223.037 194.759 223.037 194.889C223.037 195.011 222.996 195.113 222.915 195.194C222.655 195.471 222.354 195.691 222.012 195.854C221.678 196.008 221.328 196.085 220.962 196.085C220.547 196.085 220.197 195.988 219.912 195.792C219.627 195.589 219.436 195.198 219.338 194.621C218.94 195.068 218.378 195.443 217.654 195.744C216.938 196.045 216.156 196.195 215.31 196.195C214.399 196.195 213.687 195.947 213.174 195.451C212.661 194.946 212.405 194.275 212.405 193.437C212.405 192.59 212.673 191.951 213.21 191.52C213.748 191.089 214.407 190.804 215.188 190.666C215.977 190.527 217.035 190.413 218.362 190.324L219.253 190.263ZM217.556 194.804C218.248 194.527 218.813 194.157 219.253 193.693V191.105L218.752 191.154C217.418 191.284 216.417 191.41 215.75 191.532C215.09 191.646 214.565 191.85 214.175 192.143C213.784 192.436 213.589 192.867 213.589 193.437C213.589 194.055 213.756 194.507 214.089 194.792C214.431 195.068 214.883 195.207 215.444 195.207C216.169 195.207 216.873 195.072 217.556 194.804ZM235.146 187.553H230.618V193.51C230.618 194.096 230.809 194.527 231.191 194.804C231.582 195.072 232.091 195.207 232.717 195.207C233.287 195.207 233.877 195.109 234.487 194.914C235.106 194.71 235.61 194.462 236.001 194.169C236.034 194.136 236.078 194.12 236.135 194.12C236.249 194.12 236.363 194.189 236.477 194.328C236.591 194.466 236.648 194.604 236.648 194.743C236.648 194.808 236.628 194.869 236.587 194.926C236.416 195.129 236.119 195.333 235.696 195.536C235.281 195.731 234.797 195.89 234.243 196.012C233.69 196.142 233.14 196.208 232.595 196.208C232.042 196.208 231.521 196.106 231.033 195.902C230.553 195.691 230.166 195.41 229.873 195.06C229.588 194.71 229.446 194.336 229.446 193.937V187.553H227.7C227.521 187.553 227.383 187.5 227.285 187.394C227.188 187.288 227.139 187.166 227.139 187.028C227.139 186.898 227.183 186.788 227.273 186.698C227.362 186.601 227.489 186.552 227.651 186.552H229.446C229.446 185.535 229.458 184.806 229.482 184.367C229.507 183.927 229.568 183.606 229.666 183.402C229.771 183.191 229.942 183.085 230.178 183.085C230.357 183.085 230.475 183.134 230.532 183.231C230.589 183.321 230.618 183.455 230.618 183.634V186.552H235.159C235.305 186.552 235.419 186.605 235.5 186.71C235.59 186.808 235.635 186.922 235.635 187.052C235.635 187.191 235.59 187.309 235.5 187.406C235.419 187.504 235.301 187.553 235.146 187.553ZM247.317 183.427C247.122 183.231 247.024 182.995 247.024 182.719C247.024 182.434 247.122 182.194 247.317 181.999C247.52 181.803 247.76 181.706 248.037 181.706C248.314 181.706 248.55 181.803 248.745 181.999C248.94 182.194 249.038 182.434 249.038 182.719C249.038 182.995 248.94 183.231 248.745 183.427C248.558 183.622 248.322 183.72 248.037 183.72C247.752 183.72 247.512 183.622 247.317 183.427ZM253.274 195.854C253.184 195.951 253.062 196 252.908 196H243.191C243.012 196 242.874 195.947 242.776 195.841C242.678 195.736 242.629 195.613 242.629 195.475C242.629 195.345 242.674 195.235 242.764 195.146C242.853 195.048 242.979 194.999 243.142 194.999H247.683V187.223L243.618 187.772L243.533 187.785C243.378 187.785 243.256 187.736 243.167 187.638C243.077 187.532 243.032 187.41 243.032 187.272C243.032 187.15 243.065 187.044 243.13 186.955C243.195 186.857 243.293 186.8 243.423 186.784L248.281 186.112C248.306 186.104 248.35 186.1 248.416 186.1C248.546 186.1 248.652 186.137 248.733 186.21C248.814 186.275 248.855 186.369 248.855 186.491V194.999H252.92C253.075 194.999 253.193 195.052 253.274 195.158C253.363 195.255 253.408 195.369 253.408 195.5C253.408 195.638 253.363 195.756 253.274 195.854ZM257.766 193.815C257.335 193.05 257.119 192.159 257.119 191.142C257.119 190.116 257.335 189.221 257.766 188.456C258.197 187.691 258.804 187.105 259.585 186.698C260.366 186.283 261.27 186.076 262.295 186.076C263.32 186.076 264.224 186.283 265.005 186.698C265.786 187.105 266.392 187.691 266.824 188.456C267.255 189.221 267.471 190.116 267.471 191.142C267.471 192.159 267.255 193.05 266.824 193.815C266.392 194.58 265.786 195.17 265.005 195.585C264.224 196 263.32 196.208 262.295 196.208C261.27 196.208 260.366 196 259.585 195.585C258.804 195.17 258.197 194.58 257.766 193.815ZM258.889 189.042C258.588 189.652 258.438 190.352 258.438 191.142C258.438 191.939 258.588 192.647 258.889 193.266C259.198 193.876 259.642 194.352 260.22 194.694C260.806 195.036 261.497 195.207 262.295 195.207C263.092 195.207 263.78 195.036 264.358 194.694C264.944 194.352 265.387 193.876 265.688 193.266C265.998 192.647 266.152 191.939 266.152 191.142C266.152 190.352 265.998 189.652 265.688 189.042C265.387 188.424 264.944 187.943 264.358 187.602C263.78 187.252 263.092 187.077 262.295 187.077C261.497 187.077 260.806 187.252 260.22 187.602C259.642 187.943 259.198 188.424 258.889 189.042ZM280.776 194.999V189.408C280.776 188.668 280.589 188.094 280.215 187.687C279.849 187.28 279.303 187.077 278.579 187.077C277.839 187.077 277.167 187.219 276.565 187.504C275.971 187.789 275.507 188.147 275.173 188.578C274.84 189.009 274.673 189.437 274.673 189.86V194.999H275.955C276.142 194.999 276.284 195.048 276.382 195.146C276.488 195.243 276.541 195.357 276.541 195.487C276.541 195.626 276.484 195.748 276.37 195.854C276.264 195.951 276.117 196 275.93 196H272.231C272.052 196 271.914 195.947 271.816 195.841C271.719 195.736 271.67 195.613 271.67 195.475C271.67 195.345 271.715 195.235 271.804 195.146C271.894 195.048 272.02 194.999 272.183 194.999H273.501V187.345L272.183 187.614C272.101 187.638 272.02 187.65 271.938 187.65C271.8 187.65 271.686 187.606 271.597 187.516C271.507 187.427 271.462 187.317 271.462 187.187C271.462 187.073 271.495 186.971 271.56 186.881C271.625 186.784 271.727 186.719 271.865 186.686L273.867 186.283C273.981 186.267 274.054 186.259 274.087 186.259C274.388 186.259 274.547 186.417 274.563 186.735L274.624 188.2C274.827 187.801 275.129 187.443 275.527 187.125C275.926 186.8 276.386 186.544 276.907 186.356C277.428 186.169 277.965 186.076 278.518 186.076C279.666 186.076 280.524 186.373 281.094 186.967C281.663 187.561 281.948 188.403 281.948 189.494V194.999H283.279C283.433 194.999 283.551 195.048 283.633 195.146C283.722 195.243 283.767 195.357 283.767 195.487C283.767 195.626 283.722 195.748 283.633 195.854C283.543 195.951 283.417 196 283.254 196H279.043C278.864 196 278.726 195.947 278.628 195.841C278.53 195.736 278.481 195.613 278.481 195.475C278.481 195.345 278.526 195.235 278.616 195.146C278.705 195.048 278.831 194.999 278.994 194.999H280.776Z" fill="#B2648C"/>
<path d="M212.229 71.22C212.229 76.0733 211.926 80.2767 211.319 83.83C210.799 87.2967 209.846 90.1567 208.459 92.41C207.159 94.6633 205.382 96.3533 203.129 97.48C200.876 98.52 198.102 99.04 194.809 99.04C192.036 99.04 189.826 98.4333 188.179 97.22C186.619 95.92 185.406 94.2733 184.539 92.28C183.672 90.2 183.109 87.9467 182.849 85.52C182.676 83.0933 182.589 80.71 182.589 78.37V69.53H183.759V78.37C183.759 83.4833 184.236 87.3833 185.189 90.07C186.142 92.7567 187.226 94.7067 188.439 95.92C189.739 97.0467 190.996 97.6967 192.209 97.87C193.509 97.9567 194.462 98 195.069 98C197.842 98 199.749 95.8333 200.789 91.5C201.829 87.08 202.349 80.32 202.349 71.22V7.51999C197.496 7.69333 193.292 8.38667 189.739 9.6C186.272 10.7267 183.889 13.0667 182.589 16.62V6.22H212.229V71.22ZM250.82 96.96H272.79C278.51 96.96 283.146 95.5733 286.7 92.8C290.253 90.0267 293.2 85.3467 295.54 78.76L292.55 98H240.81V6.22H293.33V16.62C290.99 14.4533 288.736 12.72 286.57 11.42C284.49 10.12 282.236 9.16666 279.81 8.56C277.47 7.95333 274.826 7.56333 271.88 7.39C268.933 7.21666 265.466 7.12999 261.48 7.12999H250.82V28.19C250.82 32.61 251.383 36.25 252.51 39.11C253.636 41.8833 255.326 44.05 257.58 45.61C259.833 47.17 262.65 48.2533 266.03 48.86C269.41 49.38 273.31 49.64 277.73 49.64V59.91C275.823 57.7433 273.526 56.0533 270.84 54.84C268.153 53.6267 265.466 52.3267 262.78 50.94C260.18 49.4667 257.753 47.69 255.5 45.61C253.333 43.53 251.773 40.5833 250.82 36.77V96.96ZM333.917 6.22C337.471 6.22 340.807 6.87 343.927 8.16999C347.134 9.38333 350.081 11.16 352.767 13.5C355.541 15.7533 358.054 18.4833 360.307 21.69C362.647 24.81 364.771 28.2333 366.677 31.96C370.577 39.0667 373.611 46.91 375.777 55.49C378.031 63.9833 379.634 72.4333 380.587 80.84V6.22H390.337V98H380.587C380.587 92.8 380.284 87.3833 379.677 81.75C379.071 76.03 378.161 70.31 376.947 64.59C375.734 58.87 374.217 53.28 372.397 47.82C370.664 42.2733 368.584 37.16 366.157 32.48C364.164 28.7533 362.041 25.3733 359.787 22.34C357.534 19.22 355.064 16.5333 352.377 14.28C349.691 12.0267 346.787 10.2933 343.667 9.08C340.634 7.77999 337.384 7.12999 333.917 7.12999V98H324.167V6.22H333.917ZM428.7 6.22C432.254 6.22 435.59 6.87 438.71 8.16999C441.917 9.38333 444.864 11.16 447.55 13.5C450.324 15.7533 452.837 18.4833 455.09 21.69C457.43 24.81 459.554 28.2333 461.46 31.96C465.36 39.0667 468.394 46.91 470.56 55.49C472.814 63.9833 474.417 72.4333 475.37 80.84V6.22H485.12V98H475.37C475.37 92.8 475.067 87.3833 474.46 81.75C473.854 76.03 472.944 70.31 471.73 64.59C470.517 58.87 469 53.28 467.18 47.82C465.447 42.2733 463.367 37.16 460.94 32.48C458.947 28.7533 456.824 25.3733 454.57 22.34C452.317 19.22 449.847 16.5333 447.16 14.28C444.474 12.0267 441.57 10.2933 438.45 9.08C435.417 7.77999 432.167 7.12999 428.7 7.12999V98H418.95V6.22H428.7ZM513.734 6.22H523.484V98H513.734V6.22ZM562.033 98H552.023V6.22H604.543V16.62C602.289 14.4533 600.079 12.72 597.913 11.42C595.833 10.12 593.579 9.16666 591.153 8.56C588.726 7.95333 585.996 7.56333 582.963 7.39C580.016 7.21666 576.549 7.12999 572.563 7.12999H562.033V28.19C562.033 32.61 562.596 36.25 563.723 39.11C564.849 41.8833 566.539 44.05 568.793 45.61C571.133 47.17 573.993 48.2533 577.373 48.86C580.753 49.38 584.696 49.64 589.203 49.64V59.91C587.209 57.7433 584.869 56.0533 582.183 54.84C579.496 53.6267 576.809 52.3267 574.123 50.94C571.436 49.4667 568.966 47.69 566.713 45.61C564.546 43.53 562.986 40.5833 562.033 36.77V98ZM643.105 96.96H665.075C670.795 96.96 675.432 95.5733 678.985 92.8C682.538 90.0267 685.485 85.3467 687.825 78.76L684.835 98H633.095V6.22H685.615V16.62C683.275 14.4533 681.022 12.72 678.855 11.42C676.775 10.12 674.522 9.16666 672.095 8.56C669.755 7.95333 667.112 7.56333 664.165 7.39C661.218 7.21666 657.752 7.12999 653.765 7.12999H643.105V28.19C643.105 32.61 643.668 36.25 644.795 39.11C645.922 41.8833 647.612 44.05 649.865 45.61C652.118 47.17 654.935 48.2533 658.315 48.86C661.695 49.38 665.595 49.64 670.015 49.64V59.91C668.108 57.7433 665.812 56.0533 663.125 54.84C660.438 53.6267 657.752 52.3267 655.065 50.94C652.465 49.4667 650.038 47.69 647.785 45.61C645.618 43.53 644.058 40.5833 643.105 36.77V96.96ZM753.242 47.3C756.622 48.08 759.482 49.4233 761.822 51.33C764.162 53.2367 766.199 55.49 767.932 58.09C769.752 60.69 771.312 63.55 772.612 66.67C773.912 69.7033 775.212 72.7367 776.512 75.77C777.726 78.63 778.939 81.36 780.152 83.96C781.452 86.4733 782.839 88.7267 784.312 90.72C785.786 92.6267 787.389 94.1433 789.122 95.27C790.856 96.3967 792.806 96.96 794.972 96.96V98C789.079 98 784.269 97.3067 780.542 95.92C776.816 94.4467 773.869 92.54 771.702 90.2C769.536 87.86 767.932 85.1733 766.892 82.14C765.939 79.1067 765.159 76.03 764.552 72.91C764.032 69.79 763.512 66.7133 762.992 63.68C762.559 60.6467 761.822 57.96 760.782 55.62C759.742 53.28 758.182 51.4167 756.102 50.03C754.109 48.5567 751.292 47.82 747.652 47.82C741.066 47.82 735.779 44.7 731.792 38.46C729.539 34.82 727.849 30.3567 726.722 25.07V98H716.452V6.09H739.332C744.099 6.09 748.606 6.48 752.852 7.26C757.099 7.95333 760.782 9.12333 763.902 10.77C767.109 12.4167 769.622 14.54 771.442 17.14C773.262 19.74 774.172 22.9033 774.172 26.63C774.172 29.8367 773.609 32.6533 772.482 35.08C771.356 37.5067 769.839 39.5867 767.932 41.32C766.026 42.9667 763.816 44.31 761.302 45.35C758.789 46.3033 756.102 46.9533 753.242 47.3ZM763.902 26.63C763.902 22.9033 763.209 19.8267 761.822 17.4C760.436 14.8867 758.616 12.8933 756.362 11.42C754.109 9.86 751.466 8.77666 748.432 8.16999C745.486 7.47666 742.452 7.12999 739.332 7.12999H726.722V15.19C726.722 19.9567 727.242 24.2033 728.282 27.93C729.409 31.6567 730.882 34.95 732.702 37.81C734.522 40.4967 736.689 42.7067 739.202 44.44C741.802 46.0867 744.619 46.91 747.652 46.91H748.562C750.642 46.8233 752.592 46.3467 754.412 45.48C756.319 44.6133 757.966 43.3567 759.352 41.71C760.739 40.0633 761.822 37.9833 762.602 35.47C763.469 32.9567 763.902 30.01 763.902 26.63ZM362.815 158.32C362.815 153.467 363.985 149.437 366.325 146.23C368.751 143.023 371.828 140.553 375.555 138.82C379.281 137 383.398 135.917 387.905 135.57C392.498 135.137 396.961 135.353 401.295 136.22C405.628 137.087 409.615 138.517 413.255 140.51C416.895 142.503 419.625 145.017 421.445 148.05V161.7C418.151 155.027 414.295 149.827 409.875 146.1C405.541 142.373 401.121 139.817 396.615 138.43C392.108 137.043 387.731 136.697 383.485 137.39C379.238 137.997 375.641 139.34 372.695 141.42C370.181 143.067 368.448 145.19 367.495 147.79C366.541 150.303 366.801 153.12 368.275 156.24C369.748 159.36 372.608 162.697 376.855 166.25C381.188 169.803 387.341 173.443 395.315 177.17C398.868 178.73 402.291 180.377 405.585 182.11C408.965 183.843 411.911 185.88 414.425 188.22C417.025 190.473 419.105 193.073 420.665 196.02C422.225 198.88 423.005 202.217 423.005 206.03C423.005 209.583 422.311 212.703 420.925 215.39C419.625 218.077 417.805 220.373 415.465 222.28C411.738 225.14 407.231 226.96 401.945 227.74C396.745 228.52 391.328 228.347 385.695 227.22C380.148 226.093 374.731 224.057 369.445 221.11C364.245 218.077 359.825 214.22 356.185 209.54V191.47C359.391 199.53 363.421 206.29 368.275 211.75C373.215 217.123 378.415 221.11 383.875 223.71C389.335 226.223 394.751 227.307 400.125 226.96C405.585 226.613 410.351 224.707 414.425 221.24C416.591 219.42 417.978 217.297 418.585 214.87C419.191 212.357 418.671 209.627 417.025 206.68C415.378 203.647 412.388 200.44 408.055 197.06C403.808 193.68 397.915 190.257 390.375 186.79C386.908 185.23 383.528 183.583 380.235 181.85C376.941 180.03 373.995 177.993 371.395 175.74C368.795 173.487 366.715 170.973 365.155 168.2C363.595 165.34 362.815 162.047 362.815 158.32ZM461.873 194.72C461.873 200.093 462.869 205.077 464.863 209.67C466.943 214.263 469.716 218.033 473.183 220.98C476.736 223.84 480.853 225.747 485.533 226.7C490.213 227.567 495.153 227.003 500.353 225.01C506.593 222.757 511.446 219.03 514.913 213.83C518.466 208.63 520.243 202.26 520.243 194.72C520.243 189.867 520.156 184.623 519.983 178.99C519.896 173.27 519.549 167.723 518.943 162.35C518.336 156.89 517.426 151.863 516.213 147.27C515.086 142.59 513.439 138.863 511.273 136.09H521.413V194.72C521.413 202 519.636 208.413 516.083 213.96C512.616 219.507 507.459 223.537 500.613 226.05C494.806 228.13 488.956 228.867 483.063 228.26C477.256 227.653 472.013 225.963 467.333 223.19C462.653 220.33 458.839 216.473 455.893 211.62C453.033 206.767 451.603 201.133 451.603 194.72V136.09H461.873V194.72ZM580.878 178.08C578.884 178.08 577.108 178.47 575.548 179.25C574.074 179.943 572.774 180.767 571.648 181.72C570.608 182.673 569.741 183.713 569.048 184.84C568.354 185.88 567.878 186.703 567.618 187.31C565.191 192.857 563.284 198.88 561.898 205.38C560.598 211.88 559.948 219.42 559.948 228H550.068V136.22H559.948V211.36C560.728 205.38 561.898 199.92 563.458 194.98C565.018 190.04 566.924 185.403 569.178 181.07C571.518 176.737 574.118 172.577 576.978 168.59C579.924 164.603 583.131 160.573 586.598 156.5C589.024 153.553 590.974 150.78 592.448 148.18C593.054 147.053 593.574 145.927 594.008 144.8C594.528 143.673 594.874 142.59 595.048 141.55C595.221 140.423 595.178 139.427 594.918 138.56C594.658 137.607 594.094 136.827 593.228 136.22H614.808C612.554 136.653 610.258 137.563 607.918 138.95C605.664 140.25 603.584 141.593 601.678 142.98C599.858 144.367 598.341 145.623 597.128 146.75C595.914 147.79 595.264 148.31 595.178 148.31C590.064 154.117 585.428 159.62 581.268 164.82C577.108 170.02 573.468 175.567 570.348 181.46C571.474 180.333 572.904 179.337 574.638 178.47C576.371 177.517 578.451 177.04 580.878 177.04C585.384 177.04 589.154 177.907 592.188 179.64C595.221 181.287 597.778 183.497 599.858 186.27C601.938 188.957 603.714 192.033 605.188 195.5C606.748 198.88 608.264 202.26 609.738 205.64C611.038 208.5 612.294 211.23 613.508 213.83C614.808 216.43 616.151 218.727 617.538 220.72C619.011 222.627 620.614 224.143 622.348 225.27C624.168 226.397 626.204 226.96 628.458 226.96V228C622.564 228 617.754 227.307 614.028 225.92C610.301 224.447 607.354 222.54 605.188 220.2C603.021 217.86 601.418 215.217 600.378 212.27C599.338 209.237 598.514 206.16 597.908 203.04C597.388 199.92 596.868 196.887 596.348 193.94C595.914 190.907 595.134 188.22 594.008 185.88C592.968 183.54 591.451 181.677 589.458 180.29C587.464 178.817 584.604 178.08 580.878 178.08ZM654.359 194.72C654.359 200.093 655.356 205.077 657.349 209.67C659.429 214.263 662.202 218.033 665.669 220.98C669.222 223.84 673.339 225.747 678.019 226.7C682.699 227.567 687.639 227.003 692.839 225.01C699.079 222.757 703.932 219.03 707.399 213.83C710.952 208.63 712.729 202.26 712.729 194.72C712.729 189.867 712.642 184.623 712.469 178.99C712.382 173.27 712.036 167.723 711.429 162.35C710.822 156.89 709.912 151.863 708.699 147.27C707.572 142.59 705.926 138.863 703.759 136.09H713.899V194.72C713.899 202 712.122 208.413 708.569 213.96C705.102 219.507 699.946 223.537 693.099 226.05C687.292 228.13 681.442 228.867 675.549 228.26C669.742 227.653 664.499 225.963 659.819 223.19C655.139 220.33 651.326 216.473 648.379 211.62C645.519 206.767 644.089 201.133 644.089 194.72V136.09H654.359V194.72ZM773.494 137.13C770.027 137.13 766.864 137.26 764.004 137.52C761.144 137.693 758.457 138.083 755.944 138.69C753.517 139.297 751.221 140.207 749.054 141.42C746.887 142.547 744.721 144.15 742.554 146.23V136.09H814.444V146.23C812.191 144.15 809.981 142.547 807.814 141.42C805.647 140.207 803.307 139.297 800.794 138.69C798.367 138.083 795.724 137.693 792.864 137.52C790.091 137.26 786.971 137.13 783.504 137.13V228H773.494V137.13Z" fill="#797D31"/>
</svg>
