<svg width="819" height="253" viewBox="0 0 819 253" fill="none" xmlns="http://www.w3.org/2000/svg">
<path d="M34.0465 156.55C34.5798 156.55 35.1965 156.642 35.8965 156.825L35.5965 161.3H33.8965V158.475H33.7715C31.7382 158.475 30.2965 159.925 29.4465 162.825V168.375H32.1215V170H25.2715V168.375H27.3465V158.45H25.2715V156.825H28.9215L29.3215 159.95C29.8548 158.817 30.4882 157.967 31.2215 157.4C31.9715 156.833 32.9132 156.55 34.0465 156.55ZM44.3117 164.15C44.3617 165.6 44.7367 166.692 45.4367 167.425C46.1534 168.158 47.0534 168.525 48.1367 168.525C48.7867 168.525 49.3784 168.433 49.9117 168.25C50.4617 168.05 51.0451 167.75 51.6617 167.35L52.6367 168.75C52.0201 169.233 51.3117 169.608 50.5117 169.875C49.7284 170.142 48.9367 170.275 48.1367 170.275C46.2367 170.275 44.7534 169.658 43.6867 168.425C42.6367 167.175 42.1117 165.508 42.1117 163.425C42.1117 162.108 42.3451 160.933 42.8117 159.9C43.2784 158.85 43.9451 158.033 44.8117 157.45C45.6784 156.85 46.6867 156.55 47.8367 156.55C49.5034 156.55 50.8117 157.133 51.7617 158.3C52.7284 159.45 53.2117 161.025 53.2117 163.025C53.2117 163.408 53.1951 163.783 53.1617 164.15H44.3117ZM47.8617 158.275C46.8451 158.275 46.0201 158.642 45.3867 159.375C44.7534 160.092 44.3951 161.15 44.3117 162.55H51.1617C51.1451 161.167 50.8451 160.108 50.2617 159.375C49.6784 158.642 48.8784 158.275 47.8617 158.275ZM64.627 168.55C65.627 168.55 66.4186 168.358 67.002 167.975C67.5853 167.592 67.877 167.083 67.877 166.45C67.877 166.017 67.802 165.667 67.652 165.4C67.502 165.117 67.202 164.867 66.752 164.65C66.302 164.417 65.6186 164.183 64.702 163.95C63.1686 163.567 62.0353 163.108 61.302 162.575C60.5686 162.025 60.202 161.217 60.202 160.15C60.202 159.05 60.6603 158.175 61.577 157.525C62.4936 156.875 63.702 156.55 65.202 156.55C67.0353 156.55 68.6353 157.033 70.002 158L69.052 159.45C68.502 159.067 67.927 158.775 67.327 158.575C66.727 158.358 66.0353 158.25 65.252 158.25C63.352 158.25 62.402 158.825 62.402 159.975C62.402 160.375 62.502 160.7 62.702 160.95C62.9186 161.2 63.2603 161.425 63.727 161.625C64.2103 161.808 64.927 162.033 65.877 162.3C67.3103 162.683 68.377 163.175 69.077 163.775C69.7936 164.358 70.152 165.217 70.152 166.35C70.152 167.667 69.6186 168.65 68.552 169.3C67.4853 169.95 66.177 170.275 64.627 170.275C62.5603 170.275 60.8436 169.683 59.477 168.5L60.652 167.125C61.1853 167.558 61.7936 167.908 62.477 168.175C63.1603 168.425 63.877 168.55 64.627 168.55ZM79.7172 166.175C79.7172 167.025 79.8922 167.65 80.2422 168.05C80.6089 168.433 81.1755 168.625 81.9422 168.625C82.6422 168.625 83.3172 168.425 83.9672 168.025C84.6172 167.625 85.1339 167.125 85.5172 166.525V156.825H87.6172V170H85.8172L85.6422 168.225C85.1255 168.875 84.4839 169.383 83.7172 169.75C82.9672 170.1 82.2005 170.275 81.4172 170.275C80.1672 170.275 79.2172 169.942 78.5672 169.275C77.9339 168.608 77.6172 167.65 77.6172 166.4V156.825H79.7172V166.175ZM103.782 156.55C104.532 156.55 105.141 156.817 105.607 157.35C106.091 157.867 106.332 158.817 106.332 160.2V170H104.407V160.55C104.407 159.633 104.349 159.017 104.232 158.7C104.116 158.367 103.832 158.2 103.382 158.2C102.532 158.2 101.766 158.725 101.082 159.775V170H99.1324V160.55C99.1324 159.633 99.0741 159.017 98.9574 158.7C98.8408 158.367 98.5574 158.2 98.1074 158.2C97.2574 158.2 96.4908 158.725 95.8074 159.775V170H93.8824V156.825H95.5074L95.6574 158.375C96.0574 157.792 96.4741 157.342 96.9074 157.025C97.3574 156.708 97.8908 156.55 98.5074 156.55C99.7408 156.55 100.532 157.133 100.882 158.3C101.282 157.733 101.707 157.3 102.157 157C102.607 156.7 103.149 156.55 103.782 156.55ZM114.273 164.15C114.323 165.6 114.698 166.692 115.398 167.425C116.114 168.158 117.014 168.525 118.098 168.525C118.748 168.525 119.339 168.433 119.873 168.25C120.423 168.05 121.006 167.75 121.623 167.35L122.598 168.75C121.981 169.233 121.273 169.608 120.473 169.875C119.689 170.142 118.898 170.275 118.098 170.275C116.198 170.275 114.714 169.658 113.648 168.425C112.598 167.175 112.073 165.508 112.073 163.425C112.073 162.108 112.306 160.933 112.773 159.9C113.239 158.85 113.906 158.033 114.773 157.45C115.639 156.85 116.648 156.55 117.798 156.55C119.464 156.55 120.773 157.133 121.723 158.3C122.689 159.45 123.173 161.025 123.173 163.025C123.173 163.408 123.156 163.783 123.123 164.15H114.273ZM117.823 158.275C116.806 158.275 115.981 158.642 115.348 159.375C114.714 160.092 114.356 161.15 114.273 162.55H121.123C121.106 161.167 120.806 160.108 120.223 159.375C119.639 158.642 118.839 158.275 117.823 158.275ZM135.088 165.875C135.655 165.875 136.13 166.075 136.513 166.475C136.913 166.858 137.113 167.325 137.113 167.875C137.113 168.492 136.955 169.15 136.638 169.85L134.613 174.475H132.713L133.888 169.55C133.655 169.367 133.463 169.125 133.313 168.825C133.163 168.525 133.088 168.217 133.088 167.9C133.088 167.333 133.28 166.858 133.663 166.475C134.046 166.075 134.521 165.875 135.088 165.875ZM169.568 168.55C170.568 168.55 171.36 168.358 171.943 167.975C172.527 167.592 172.818 167.083 172.818 166.45C172.818 166.017 172.743 165.667 172.593 165.4C172.443 165.117 172.143 164.867 171.693 164.65C171.243 164.417 170.56 164.183 169.643 163.95C168.11 163.567 166.977 163.108 166.243 162.575C165.51 162.025 165.143 161.217 165.143 160.15C165.143 159.05 165.602 158.175 166.518 157.525C167.435 156.875 168.643 156.55 170.143 156.55C171.977 156.55 173.577 157.033 174.943 158L173.993 159.45C173.443 159.067 172.868 158.775 172.268 158.575C171.668 158.358 170.977 158.25 170.193 158.25C168.293 158.25 167.343 158.825 167.343 159.975C167.343 160.375 167.443 160.7 167.643 160.95C167.86 161.2 168.202 161.425 168.668 161.625C169.152 161.808 169.868 162.033 170.818 162.3C172.252 162.683 173.318 163.175 174.018 163.775C174.735 164.358 175.093 165.217 175.093 166.35C175.093 167.667 174.56 168.65 173.493 169.3C172.427 169.95 171.118 170.275 169.568 170.275C167.502 170.275 165.785 169.683 164.418 168.5L165.593 167.125C166.127 167.558 166.735 167.908 167.418 168.175C168.102 168.425 168.818 168.55 169.568 168.55ZM184.809 170H182.709V151.525L184.809 151.275V170ZM187.684 162.775L194.284 170H191.509L185.034 162.8L190.884 156.825H193.584L187.684 162.775ZM205.049 150.675C205.515 150.675 205.89 150.817 206.174 151.1C206.457 151.367 206.599 151.717 206.599 152.15C206.599 152.583 206.457 152.942 206.174 153.225C205.89 153.492 205.515 153.625 205.049 153.625C204.599 153.625 204.232 153.492 203.949 153.225C203.682 152.942 203.549 152.583 203.549 152.15C203.549 151.717 203.682 151.367 203.949 151.1C204.232 150.817 204.599 150.675 205.049 150.675ZM206.724 168.325H210.424V170H200.574V168.325H204.624V158.5H200.699V156.825H206.724V168.325ZM222.689 166.75C222.689 167.933 223.414 168.525 224.864 168.525C225.547 168.525 226.281 168.375 227.064 168.075L227.614 169.6C226.781 170.05 225.739 170.275 224.489 170.275C223.306 170.275 222.356 169.95 221.639 169.3C220.939 168.65 220.589 167.767 220.589 166.65V153.2H216.539V151.525H222.689V166.75ZM240.179 166.75C240.179 167.933 240.904 168.525 242.354 168.525C243.038 168.525 243.771 168.375 244.554 168.075L245.104 169.6C244.271 170.05 243.229 170.275 241.979 170.275C240.796 170.275 239.846 169.95 239.129 169.3C238.429 168.65 238.079 167.767 238.079 166.65V153.2H234.029V151.525H240.179V166.75ZM257.02 168.55C258.02 168.55 258.811 168.358 259.395 167.975C259.978 167.592 260.27 167.083 260.27 166.45C260.27 166.017 260.195 165.667 260.045 165.4C259.895 165.117 259.595 164.867 259.145 164.65C258.695 164.417 258.011 164.183 257.095 163.95C255.561 163.567 254.428 163.108 253.695 162.575C252.961 162.025 252.595 161.217 252.595 160.15C252.595 159.05 253.053 158.175 253.97 157.525C254.886 156.875 256.095 156.55 257.595 156.55C259.428 156.55 261.028 157.033 262.395 158L261.445 159.45C260.895 159.067 260.32 158.775 259.72 158.575C259.12 158.358 258.428 158.25 257.645 158.25C255.745 158.25 254.795 158.825 254.795 159.975C254.795 160.375 254.895 160.7 255.095 160.95C255.311 161.2 255.653 161.425 256.12 161.625C256.603 161.808 257.32 162.033 258.27 162.3C259.703 162.683 260.77 163.175 261.47 163.775C262.186 164.358 262.545 165.217 262.545 166.35C262.545 167.667 262.011 168.65 260.945 169.3C259.878 169.95 258.57 170.275 257.02 170.275C254.953 170.275 253.236 169.683 251.87 168.5L253.045 167.125C253.578 167.558 254.186 167.908 254.87 168.175C255.553 168.425 256.27 168.55 257.02 168.55ZM275.01 165.875C275.576 165.875 276.051 166.075 276.435 166.475C276.835 166.858 277.035 167.325 277.035 167.875C277.035 168.492 276.876 169.15 276.56 169.85L274.535 174.475H272.635L273.81 169.55C273.576 169.367 273.385 169.125 273.235 168.825C273.085 168.525 273.01 168.217 273.01 167.9C273.01 167.333 273.201 166.858 273.585 166.475C273.968 166.075 274.443 165.875 275.01 165.875ZM67.102 182.525C67.9186 182.525 68.652 182.658 69.302 182.925C69.9686 183.192 70.627 183.683 71.277 184.4L70.027 185.55C69.577 185.05 69.1186 184.683 68.652 184.45C68.202 184.217 67.677 184.1 67.077 184.1C66.2103 184.1 65.552 184.333 65.102 184.8C64.652 185.267 64.427 185.883 64.427 186.65C64.427 187.15 64.5603 187.625 64.827 188.075C65.1103 188.508 65.4853 188.858 65.952 189.125C66.4353 189.375 66.9603 189.5 67.527 189.5H74.477V191.175H72.227V197.975C71.727 198.592 71.0603 199.133 70.227 199.6C69.3936 200.05 68.3353 200.275 67.052 200.275C65.8186 200.275 64.777 200.033 63.927 199.55C63.0936 199.067 62.477 198.433 62.077 197.65C61.677 196.867 61.477 196.025 61.477 195.125C61.477 193.842 61.8103 192.792 62.477 191.975C63.1603 191.142 64.127 190.592 65.377 190.325V190.25C64.327 190 63.5603 189.55 63.077 188.9C62.6103 188.25 62.377 187.5 62.377 186.65C62.377 185.917 62.5686 185.233 62.952 184.6C63.3353 183.967 63.8853 183.467 64.602 183.1C65.3186 182.717 66.152 182.525 67.102 182.525ZM67.202 191.175C66.3853 191.175 65.702 191.367 65.152 191.75C64.602 192.133 64.1936 192.625 63.927 193.225C63.6603 193.808 63.527 194.417 63.527 195.05C63.527 196.05 63.827 196.892 64.427 197.575C65.027 198.242 65.9186 198.575 67.102 198.575C67.802 198.575 68.427 198.467 68.977 198.25C69.527 198.017 69.9686 197.692 70.302 197.275V191.175H67.202ZM102.607 180.675C103.074 180.675 103.449 180.817 103.732 181.1C104.016 181.367 104.157 181.717 104.157 182.15C104.157 182.583 104.016 182.942 103.732 183.225C103.449 183.492 103.074 183.625 102.607 183.625C102.157 183.625 101.791 183.492 101.507 183.225C101.241 182.942 101.107 182.583 101.107 182.15C101.107 181.717 101.241 181.367 101.507 181.1C101.791 180.817 102.157 180.675 102.607 180.675ZM104.282 198.325H107.982V200H98.1324V198.325H102.182V188.5H98.2574V186.825H104.282V198.325ZM115.098 186.825H116.898L117.073 188.675C117.589 188.008 118.239 187.492 119.023 187.125C119.823 186.742 120.623 186.55 121.423 186.55C123.889 186.55 125.123 187.85 125.123 190.45V200H123.023V192C123.023 191.017 122.964 190.267 122.848 189.75C122.748 189.233 122.539 188.85 122.223 188.6C121.906 188.35 121.423 188.225 120.773 188.225C120.056 188.225 119.381 188.442 118.748 188.875C118.114 189.308 117.598 189.825 117.198 190.425V200H115.098V186.825ZM140.363 181.275C141.613 181.275 142.805 181.508 143.938 181.975L143.263 183.55C142.43 183.183 141.488 183 140.438 183C138.605 183 137.688 183.725 137.688 185.175V187.85H142.138L141.913 189.525H137.688V200H135.563V189.525H132.438V187.85H135.563V185.225C135.563 184.042 136.013 183.092 136.913 182.375C137.83 181.642 138.98 181.275 140.363 181.275ZM155.103 186.55C156.92 186.55 158.311 187.167 159.278 188.4C160.261 189.617 160.753 191.283 160.753 193.4C160.753 195.467 160.253 197.133 159.253 198.4C158.27 199.65 156.878 200.275 155.078 200.275C153.261 200.275 151.861 199.667 150.878 198.45C149.895 197.217 149.403 195.542 149.403 193.425C149.403 191.342 149.895 189.675 150.878 188.425C151.878 187.175 153.286 186.55 155.103 186.55ZM155.103 188.275C153.953 188.275 153.095 188.7 152.528 189.55C151.961 190.4 151.678 191.692 151.678 193.425C151.678 195.158 151.953 196.45 152.503 197.3C153.07 198.133 153.928 198.55 155.078 198.55C156.228 198.55 157.078 198.133 157.628 197.3C158.195 196.45 158.478 195.15 158.478 193.4C158.478 191.667 158.195 190.383 157.628 189.55C157.078 188.7 156.236 188.275 155.103 188.275ZM176.468 186.55C177.002 186.55 177.618 186.642 178.318 186.825L178.018 191.3H176.318V188.475H176.193C174.16 188.475 172.718 189.925 171.868 192.825V198.375H174.543V200H167.693V198.375H169.768V188.45H167.693V186.825H171.343L171.743 189.95C172.277 188.817 172.91 187.967 173.643 187.4C174.393 186.833 175.335 186.55 176.468 186.55ZM193.734 186.55C194.484 186.55 195.092 186.817 195.559 187.35C196.042 187.867 196.284 188.817 196.284 190.2V200H194.359V190.55C194.359 189.633 194.3 189.017 194.184 188.7C194.067 188.367 193.784 188.2 193.334 188.2C192.484 188.2 191.717 188.725 191.034 189.775V200H189.084V190.55C189.084 189.633 189.025 189.017 188.909 188.7C188.792 188.367 188.509 188.2 188.059 188.2C187.209 188.2 186.442 188.725 185.759 189.775V200H183.834V186.825H185.459L185.609 188.375C186.009 187.792 186.425 187.342 186.859 187.025C187.309 186.708 187.842 186.55 188.459 186.55C189.692 186.55 190.484 187.133 190.834 188.3C191.234 187.733 191.659 187.3 192.109 187C192.559 186.7 193.1 186.55 193.734 186.55ZM211.999 197.125C211.999 197.642 212.082 198.025 212.249 198.275C212.415 198.508 212.69 198.683 213.074 198.8L212.549 200.3C211.265 200.133 210.465 199.508 210.149 198.425C209.682 199.025 209.09 199.483 208.374 199.8C207.674 200.117 206.89 200.275 206.024 200.275C204.707 200.275 203.665 199.908 202.899 199.175C202.149 198.442 201.774 197.458 201.774 196.225C201.774 194.875 202.299 193.833 203.349 193.1C204.415 192.367 205.94 192 207.924 192H209.874V190.925C209.874 189.992 209.607 189.325 209.074 188.925C208.54 188.508 207.765 188.3 206.749 188.3C205.749 188.3 204.607 188.525 203.324 188.975L202.749 187.375C204.299 186.825 205.74 186.55 207.074 186.55C208.674 186.55 209.89 186.925 210.724 187.675C211.574 188.425 211.999 189.467 211.999 190.8V197.125ZM206.549 198.7C207.199 198.7 207.815 198.533 208.399 198.2C208.999 197.867 209.49 197.408 209.874 196.825V193.45H207.974C206.574 193.45 205.565 193.683 204.949 194.15C204.332 194.617 204.024 195.3 204.024 196.2C204.024 197.867 204.865 198.7 206.549 198.7ZM230.514 199.325C230.064 199.625 229.514 199.858 228.864 200.025C228.231 200.192 227.597 200.275 226.964 200.275C225.581 200.275 224.497 199.917 223.714 199.2C222.931 198.467 222.539 197.508 222.539 196.325V188.475H219.514V186.825H222.539V183.85L224.639 183.6V186.825H229.214L228.939 188.475H224.639V196.3C224.639 197.05 224.839 197.608 225.239 197.975C225.639 198.342 226.281 198.525 227.164 198.525C228.064 198.525 228.906 198.317 229.689 197.9L230.514 199.325ZM242.529 180.675C242.996 180.675 243.371 180.817 243.654 181.1C243.938 181.367 244.079 181.717 244.079 182.15C244.079 182.583 243.938 182.942 243.654 183.225C243.371 183.492 242.996 183.625 242.529 183.625C242.079 183.625 241.713 183.492 241.429 183.225C241.163 182.942 241.029 182.583 241.029 182.15C241.029 181.717 241.163 181.367 241.429 181.1C241.713 180.817 242.079 180.675 242.529 180.675ZM244.204 198.325H247.904V200H238.054V198.325H242.104V188.5H238.179V186.825H244.204V198.325ZM260.045 186.55C261.861 186.55 263.253 187.167 264.22 188.4C265.203 189.617 265.695 191.283 265.695 193.4C265.695 195.467 265.195 197.133 264.195 198.4C263.211 199.65 261.82 200.275 260.02 200.275C258.203 200.275 256.803 199.667 255.82 198.45C254.836 197.217 254.345 195.542 254.345 193.425C254.345 191.342 254.836 189.675 255.82 188.425C256.82 187.175 258.228 186.55 260.045 186.55ZM260.045 188.275C258.895 188.275 258.036 188.7 257.47 189.55C256.903 190.4 256.62 191.692 256.62 193.425C256.62 195.158 256.895 196.45 257.445 197.3C258.011 198.133 258.87 198.55 260.02 198.55C261.17 198.55 262.02 198.133 262.57 197.3C263.136 196.45 263.42 195.15 263.42 193.4C263.42 191.667 263.136 190.383 262.57 189.55C262.02 188.7 261.178 188.275 260.045 188.275ZM272.51 186.825H274.31L274.485 188.675C275.001 188.008 275.651 187.492 276.435 187.125C277.235 186.742 278.035 186.55 278.835 186.55C281.301 186.55 282.535 187.85 282.535 190.45V200H280.435V192C280.435 191.017 280.376 190.267 280.26 189.75C280.16 189.233 279.951 188.85 279.635 188.6C279.318 188.35 278.835 188.225 278.185 188.225C277.468 188.225 276.793 188.442 276.16 188.875C275.526 189.308 275.01 189.825 274.61 190.425V200H272.51V186.825Z" fill="#D488DB"/>
<path d="M212.229 71.22C212.229 76.0733 211.926 80.2767 211.319 83.83C210.799 87.2967 209.846 90.1567 208.459 92.41C207.159 94.6633 205.382 96.3533 203.129 97.48C200.876 98.52 198.102 99.04 194.809 99.04C192.036 99.04 189.826 98.4333 188.179 97.22C186.619 95.92 185.406 94.2733 184.539 92.28C183.672 90.2 183.109 87.9467 182.849 85.52C182.676 83.0933 182.589 80.71 182.589 78.37V69.53H183.759V78.37C183.759 83.4833 184.236 87.3833 185.189 90.07C186.142 92.7567 187.226 94.7067 188.439 95.92C189.739 97.0467 190.996 97.6967 192.209 97.87C193.509 97.9567 194.462 98 195.069 98C197.842 98 199.749 95.8333 200.789 91.5C201.829 87.08 202.349 80.32 202.349 71.22V7.51999C197.496 7.69333 193.292 8.38667 189.739 9.6C186.272 10.7267 183.889 13.0667 182.589 16.62V6.22H212.229V71.22ZM250.82 96.96H272.79C278.51 96.96 283.146 95.5733 286.7 92.8C290.253 90.0267 293.2 85.3467 295.54 78.76L292.55 98H240.81V6.22H293.33V16.62C290.99 14.4533 288.736 12.72 286.57 11.42C284.49 10.12 282.236 9.16666 279.81 8.56C277.47 7.95333 274.826 7.56333 271.88 7.39C268.933 7.21666 265.466 7.12999 261.48 7.12999H250.82V28.19C250.82 32.61 251.383 36.25 252.51 39.11C253.636 41.8833 255.326 44.05 257.58 45.61C259.833 47.17 262.65 48.2533 266.03 48.86C269.41 49.38 273.31 49.64 277.73 49.64V59.91C275.823 57.7433 273.526 56.0533 270.84 54.84C268.153 53.6267 265.466 52.3267 262.78 50.94C260.18 49.4667 257.753 47.69 255.5 45.61C253.333 43.53 251.773 40.5833 250.82 36.77V96.96ZM333.917 6.22C337.471 6.22 340.807 6.87 343.927 8.16999C347.134 9.38333 350.081 11.16 352.767 13.5C355.541 15.7533 358.054 18.4833 360.307 21.69C362.647 24.81 364.771 28.2333 366.677 31.96C370.577 39.0667 373.611 46.91 375.777 55.49C378.031 63.9833 379.634 72.4333 380.587 80.84V6.22H390.337V98H380.587C380.587 92.8 380.284 87.3833 379.677 81.75C379.071 76.03 378.161 70.31 376.947 64.59C375.734 58.87 374.217 53.28 372.397 47.82C370.664 42.2733 368.584 37.16 366.157 32.48C364.164 28.7533 362.041 25.3733 359.787 22.34C357.534 19.22 355.064 16.5333 352.377 14.28C349.691 12.0267 346.787 10.2933 343.667 9.08C340.634 7.77999 337.384 7.12999 333.917 7.12999V98H324.167V6.22H333.917ZM428.7 6.22C432.254 6.22 435.59 6.87 438.71 8.16999C441.917 9.38333 444.864 11.16 447.55 13.5C450.324 15.7533 452.837 18.4833 455.09 21.69C457.43 24.81 459.554 28.2333 461.46 31.96C465.36 39.0667 468.394 46.91 470.56 55.49C472.814 63.9833 474.417 72.4333 475.37 80.84V6.22H485.12V98H475.37C475.37 92.8 475.067 87.3833 474.46 81.75C473.854 76.03 472.944 70.31 471.73 64.59C470.517 58.87 469 53.28 467.18 47.82C465.447 42.2733 463.367 37.16 460.94 32.48C458.947 28.7533 456.824 25.3733 454.57 22.34C452.317 19.22 449.847 16.5333 447.16 14.28C444.474 12.0267 441.57 10.2933 438.45 9.08C435.417 7.77999 432.167 7.12999 428.7 7.12999V98H418.95V6.22H428.7ZM513.734 6.22H523.484V98H513.734V6.22ZM562.033 98H552.023V6.22H604.543V16.62C602.289 14.4533 600.079 12.72 597.913 11.42C595.833 10.12 593.579 9.16666 591.153 8.56C588.726 7.95333 585.996 7.56333 582.963 7.39C580.016 7.21666 576.549 7.12999 572.563 7.12999H562.033V28.19C562.033 32.61 562.596 36.25 563.723 39.11C564.849 41.8833 566.539 44.05 568.793 45.61C571.133 47.17 573.993 48.2533 577.373 48.86C580.753 49.38 584.696 49.64 589.203 49.64V59.91C587.209 57.7433 584.869 56.0533 582.183 54.84C579.496 53.6267 576.809 52.3267 574.123 50.94C571.436 49.4667 568.966 47.69 566.713 45.61C564.546 43.53 562.986 40.5833 562.033 36.77V98ZM643.105 96.96H665.075C670.795 96.96 675.432 95.5733 678.985 92.8C682.538 90.0267 685.485 85.3467 687.825 78.76L684.835 98H633.095V6.22H685.615V16.62C683.275 14.4533 681.022 12.72 678.855 11.42C676.775 10.12 674.522 9.16666 672.095 8.56C669.755 7.95333 667.112 7.56333 664.165 7.39C661.218 7.21666 657.752 7.12999 653.765 7.12999H643.105V28.19C643.105 32.61 643.668 36.25 644.795 39.11C645.922 41.8833 647.612 44.05 649.865 45.61C652.118 47.17 654.935 48.2533 658.315 48.86C661.695 49.38 665.595 49.64 670.015 49.64V59.91C668.108 57.7433 665.812 56.0533 663.125 54.84C660.438 53.6267 657.752 52.3267 655.065 50.94C652.465 49.4667 650.038 47.69 647.785 45.61C645.618 43.53 644.058 40.5833 643.105 36.77V96.96ZM753.242 47.3C756.622 48.08 759.482 49.4233 761.822 51.33C764.162 53.2367 766.199 55.49 767.932 58.09C769.752 60.69 771.312 63.55 772.612 66.67C773.912 69.7033 775.212 72.7367 776.512 75.77C777.726 78.63 778.939 81.36 780.152 83.96C781.452 86.4733 782.839 88.7267 784.312 90.72C785.786 92.6267 787.389 94.1433 789.122 95.27C790.856 96.3967 792.806 96.96 794.972 96.96V98C789.079 98 784.269 97.3067 780.542 95.92C776.816 94.4467 773.869 92.54 771.702 90.2C769.536 87.86 767.932 85.1733 766.892 82.14C765.939 79.1067 765.159 76.03 764.552 72.91C764.032 69.79 763.512 66.7133 762.992 63.68C762.559 60.6467 761.822 57.96 760.782 55.62C759.742 53.28 758.182 51.4167 756.102 50.03C754.109 48.5567 751.292 47.82 747.652 47.82C741.066 47.82 735.779 44.7 731.792 38.46C729.539 34.82 727.849 30.3567 726.722 25.07V98H716.452V6.09H739.332C744.099 6.09 748.606 6.48 752.852 7.26C757.099 7.95333 760.782 9.12333 763.902 10.77C767.109 12.4167 769.622 14.54 771.442 17.14C773.262 19.74 774.172 22.9033 774.172 26.63C774.172 29.8367 773.609 32.6533 772.482 35.08C771.356 37.5067 769.839 39.5867 767.932 41.32C766.026 42.9667 763.816 44.31 761.302 45.35C758.789 46.3033 756.102 46.9533 753.242 47.3ZM763.902 26.63C763.902 22.9033 763.209 19.8267 761.822 17.4C760.436 14.8867 758.616 12.8933 756.362 11.42C754.109 9.86 751.466 8.77666 748.432 8.16999C745.486 7.47666 742.452 7.12999 739.332 7.12999H726.722V15.19C726.722 19.9567 727.242 24.2033 728.282 27.93C729.409 31.6567 730.882 34.95 732.702 37.81C734.522 40.4967 736.689 42.7067 739.202 44.44C741.802 46.0867 744.619 46.91 747.652 46.91H748.562C750.642 46.8233 752.592 46.3467 754.412 45.48C756.319 44.6133 757.966 43.3567 759.352 41.71C760.739 40.0633 761.822 37.9833 762.602 35.47C763.469 32.9567 763.902 30.01 763.902 26.63ZM362.815 158.32C362.815 153.467 363.985 149.437 366.325 146.23C368.751 143.023 371.828 140.553 375.555 138.82C379.281 137 383.398 135.917 387.905 135.57C392.498 135.137 396.961 135.353 401.295 136.22C405.628 137.087 409.615 138.517 413.255 140.51C416.895 142.503 419.625 145.017 421.445 148.05V161.7C418.151 155.027 414.295 149.827 409.875 146.1C405.541 142.373 401.121 139.817 396.615 138.43C392.108 137.043 387.731 136.697 383.485 137.39C379.238 137.997 375.641 139.34 372.695 141.42C370.181 143.067 368.448 145.19 367.495 147.79C366.541 150.303 366.801 153.12 368.275 156.24C369.748 159.36 372.608 162.697 376.855 166.25C381.188 169.803 387.341 173.443 395.315 177.17C398.868 178.73 402.291 180.377 405.585 182.11C408.965 183.843 411.911 185.88 414.425 188.22C417.025 190.473 419.105 193.073 420.665 196.02C422.225 198.88 423.005 202.217 423.005 206.03C423.005 209.583 422.311 212.703 420.925 215.39C419.625 218.077 417.805 220.373 415.465 222.28C411.738 225.14 407.231 226.96 401.945 227.74C396.745 228.52 391.328 228.347 385.695 227.22C380.148 226.093 374.731 224.057 369.445 221.11C364.245 218.077 359.825 214.22 356.185 209.54V191.47C359.391 199.53 363.421 206.29 368.275 211.75C373.215 217.123 378.415 221.11 383.875 223.71C389.335 226.223 394.751 227.307 400.125 226.96C405.585 226.613 410.351 224.707 414.425 221.24C416.591 219.42 417.978 217.297 418.585 214.87C419.191 212.357 418.671 209.627 417.025 206.68C415.378 203.647 412.388 200.44 408.055 197.06C403.808 193.68 397.915 190.257 390.375 186.79C386.908 185.23 383.528 183.583 380.235 181.85C376.941 180.03 373.995 177.993 371.395 175.74C368.795 173.487 366.715 170.973 365.155 168.2C363.595 165.34 362.815 162.047 362.815 158.32ZM461.873 194.72C461.873 200.093 462.869 205.077 464.863 209.67C466.943 214.263 469.716 218.033 473.183 220.98C476.736 223.84 480.853 225.747 485.533 226.7C490.213 227.567 495.153 227.003 500.353 225.01C506.593 222.757 511.446 219.03 514.913 213.83C518.466 208.63 520.243 202.26 520.243 194.72C520.243 189.867 520.156 184.623 519.983 178.99C519.896 173.27 519.549 167.723 518.943 162.35C518.336 156.89 517.426 151.863 516.213 147.27C515.086 142.59 513.439 138.863 511.273 136.09H521.413V194.72C521.413 202 519.636 208.413 516.083 213.96C512.616 219.507 507.459 223.537 500.613 226.05C494.806 228.13 488.956 228.867 483.063 228.26C477.256 227.653 472.013 225.963 467.333 223.19C462.653 220.33 458.839 216.473 455.893 211.62C453.033 206.767 451.603 201.133 451.603 194.72V136.09H461.873V194.72ZM580.878 178.08C578.884 178.08 577.108 178.47 575.548 179.25C574.074 179.943 572.774 180.767 571.648 181.72C570.608 182.673 569.741 183.713 569.048 184.84C568.354 185.88 567.878 186.703 567.618 187.31C565.191 192.857 563.284 198.88 561.898 205.38C560.598 211.88 559.948 219.42 559.948 228H550.068V136.22H559.948V211.36C560.728 205.38 561.898 199.92 563.458 194.98C565.018 190.04 566.924 185.403 569.178 181.07C571.518 176.737 574.118 172.577 576.978 168.59C579.924 164.603 583.131 160.573 586.598 156.5C589.024 153.553 590.974 150.78 592.448 148.18C593.054 147.053 593.574 145.927 594.008 144.8C594.528 143.673 594.874 142.59 595.048 141.55C595.221 140.423 595.178 139.427 594.918 138.56C594.658 137.607 594.094 136.827 593.228 136.22H614.808C612.554 136.653 610.258 137.563 607.918 138.95C605.664 140.25 603.584 141.593 601.678 142.98C599.858 144.367 598.341 145.623 597.128 146.75C595.914 147.79 595.264 148.31 595.178 148.31C590.064 154.117 585.428 159.62 581.268 164.82C577.108 170.02 573.468 175.567 570.348 181.46C571.474 180.333 572.904 179.337 574.638 178.47C576.371 177.517 578.451 177.04 580.878 177.04C585.384 177.04 589.154 177.907 592.188 179.64C595.221 181.287 597.778 183.497 599.858 186.27C601.938 188.957 603.714 192.033 605.188 195.5C606.748 198.88 608.264 202.26 609.738 205.64C611.038 208.5 612.294 211.23 613.508 213.83C614.808 216.43 616.151 218.727 617.538 220.72C619.011 222.627 620.614 224.143 622.348 225.27C624.168 226.397 626.204 226.96 628.458 226.96V228C622.564 228 617.754 227.307 614.028 225.92C610.301 224.447 607.354 222.54 605.188 220.2C603.021 217.86 601.418 215.217 600.378 212.27C599.338 209.237 598.514 206.16 597.908 203.04C597.388 199.92 596.868 196.887 596.348 193.94C595.914 190.907 595.134 188.22 594.008 185.88C592.968 183.54 591.451 181.677 589.458 180.29C587.464 178.817 584.604 178.08 580.878 178.08ZM654.359 194.72C654.359 200.093 655.356 205.077 657.349 209.67C659.429 214.263 662.202 218.033 665.669 220.98C669.222 223.84 673.339 225.747 678.019 226.7C682.699 227.567 687.639 227.003 692.839 225.01C699.079 222.757 703.932 219.03 707.399 213.83C710.952 208.63 712.729 202.26 712.729 194.72C712.729 189.867 712.642 184.623 712.469 178.99C712.382 173.27 712.036 167.723 711.429 162.35C710.822 156.89 709.912 151.863 708.699 147.27C707.572 142.59 705.926 138.863 703.759 136.09H713.899V194.72C713.899 202 712.122 208.413 708.569 213.96C705.102 219.507 699.946 223.537 693.099 226.05C687.292 228.13 681.442 228.867 675.549 228.26C669.742 227.653 664.499 225.963 659.819 223.19C655.139 220.33 651.326 216.473 648.379 211.62C645.519 206.767 644.089 201.133 644.089 194.72V136.09H654.359V194.72ZM773.494 137.13C770.027 137.13 766.864 137.26 764.004 137.52C761.144 137.693 758.457 138.083 755.944 138.69C753.517 139.297 751.221 140.207 749.054 141.42C746.887 142.547 744.721 144.15 742.554 146.23V136.09H814.444V146.23C812.191 144.15 809.981 142.547 807.814 141.42C805.647 140.207 803.307 139.297 800.794 138.69C798.367 138.083 795.724 137.693 792.864 137.52C790.091 137.26 786.971 137.13 783.504 137.13V228H773.494V137.13Z" fill="#797D31"/>
</svg>
